<mxfile host="app.diagrams.net" modified="2024-07-07T19:13:30.921Z" agent="Mozilla/5.0 (Macintosh; Intel Mac OS X 10_15_7) AppleWebKit/537.36 (KHTML, like Gecko) Chrome/125.0.0.0 Safari/537.36" etag="84wQgJHkDZrL20bVukgk" version="24.6.4" type="github">
  <diagram name="Page-1" id="cPXebE8d43cmAomiVw6z">
    <mxGraphModel dx="3364" dy="1511" grid="1" gridSize="10" guides="1" tooltips="1" connect="1" arrows="1" fold="1" page="1" pageScale="1" pageWidth="1169" pageHeight="827" background="#ffffff" math="0" shadow="0">
      <root>
        <mxCell id="0" />
        <mxCell id="1" parent="0" />
        <mxCell id="fGk7OGRNWrDz0cRM8d9a-23" style="edgeStyle=orthogonalEdgeStyle;rounded=0;orthogonalLoop=1;jettySize=auto;html=1;" edge="1" parent="1" source="fGk7OGRNWrDz0cRM8d9a-1" target="fGk7OGRNWrDz0cRM8d9a-22">
          <mxGeometry relative="1" as="geometry" />
        </mxCell>
        <mxCell id="fGk7OGRNWrDz0cRM8d9a-1" value="Leads will be sourced though various digital modes&amp;nbsp;" style="rounded=0;whiteSpace=wrap;html=1;" vertex="1" parent="1">
          <mxGeometry x="-1880" y="115" width="120" height="60" as="geometry" />
        </mxCell>
        <mxCell id="fGk7OGRNWrDz0cRM8d9a-10" style="edgeStyle=orthogonalEdgeStyle;rounded=0;orthogonalLoop=1;jettySize=auto;html=1;entryX=0.5;entryY=0;entryDx=0;entryDy=0;exitX=1;exitY=0.5;exitDx=0;exitDy=0;" edge="1" parent="1" source="fGk7OGRNWrDz0cRM8d9a-2" target="fGk7OGRNWrDz0cRM8d9a-1">
          <mxGeometry relative="1" as="geometry" />
        </mxCell>
        <mxCell id="fGk7OGRNWrDz0cRM8d9a-2" value="Social media" style="rounded=0;whiteSpace=wrap;html=1;" vertex="1" parent="1">
          <mxGeometry x="-1970" y="20" width="120" height="60" as="geometry" />
        </mxCell>
        <mxCell id="fGk7OGRNWrDz0cRM8d9a-12" style="edgeStyle=orthogonalEdgeStyle;rounded=0;orthogonalLoop=1;jettySize=auto;html=1;entryX=0.5;entryY=0;entryDx=0;entryDy=0;exitX=0;exitY=0.5;exitDx=0;exitDy=0;" edge="1" parent="1" source="fGk7OGRNWrDz0cRM8d9a-3" target="fGk7OGRNWrDz0cRM8d9a-1">
          <mxGeometry relative="1" as="geometry" />
        </mxCell>
        <mxCell id="fGk7OGRNWrDz0cRM8d9a-3" value="corporate website" style="rounded=0;whiteSpace=wrap;html=1;" vertex="1" parent="1">
          <mxGeometry x="-1800" y="20" width="120" height="60" as="geometry" />
        </mxCell>
        <mxCell id="fGk7OGRNWrDz0cRM8d9a-18" style="edgeStyle=orthogonalEdgeStyle;rounded=0;orthogonalLoop=1;jettySize=auto;html=1;" edge="1" parent="1" source="fGk7OGRNWrDz0cRM8d9a-13" target="fGk7OGRNWrDz0cRM8d9a-16">
          <mxGeometry relative="1" as="geometry" />
        </mxCell>
        <mxCell id="fGk7OGRNWrDz0cRM8d9a-13" value="The campaigns to be created" style="rounded=0;whiteSpace=wrap;html=1;" vertex="1" parent="1">
          <mxGeometry x="-1630" y="-10" width="120" height="65" as="geometry" />
        </mxCell>
        <mxCell id="fGk7OGRNWrDz0cRM8d9a-32" style="edgeStyle=orthogonalEdgeStyle;rounded=0;orthogonalLoop=1;jettySize=auto;html=1;" edge="1" parent="1" source="fGk7OGRNWrDz0cRM8d9a-16" target="fGk7OGRNWrDz0cRM8d9a-43">
          <mxGeometry relative="1" as="geometry">
            <mxPoint x="-1270" y="145" as="targetPoint" />
          </mxGeometry>
        </mxCell>
        <mxCell id="fGk7OGRNWrDz0cRM8d9a-16" value="User allocation to this campaigns&amp;nbsp;manually by Web Sales Team" style="rounded=0;whiteSpace=wrap;html=1;" vertex="1" parent="1">
          <mxGeometry x="-1510" y="115" width="120" height="60" as="geometry" />
        </mxCell>
        <mxCell id="fGk7OGRNWrDz0cRM8d9a-25" style="edgeStyle=orthogonalEdgeStyle;rounded=0;orthogonalLoop=1;jettySize=auto;html=1;entryX=0.5;entryY=0;entryDx=0;entryDy=0;" edge="1" parent="1" source="fGk7OGRNWrDz0cRM8d9a-19" target="fGk7OGRNWrDz0cRM8d9a-16">
          <mxGeometry relative="1" as="geometry" />
        </mxCell>
        <mxCell id="fGk7OGRNWrDz0cRM8d9a-19" value="A separate campaign created for the corporate website drop out and surfing leads for hot lead" style="rounded=0;whiteSpace=wrap;html=1;" vertex="1" parent="1">
          <mxGeometry x="-1480" y="-10" width="150" height="65" as="geometry" />
        </mxCell>
        <mxCell id="fGk7OGRNWrDz0cRM8d9a-24" style="edgeStyle=orthogonalEdgeStyle;rounded=0;orthogonalLoop=1;jettySize=auto;html=1;entryX=0;entryY=0.5;entryDx=0;entryDy=0;" edge="1" parent="1" source="fGk7OGRNWrDz0cRM8d9a-22" target="fGk7OGRNWrDz0cRM8d9a-16">
          <mxGeometry relative="1" as="geometry" />
        </mxCell>
        <mxCell id="fGk7OGRNWrDz0cRM8d9a-22" value="Tagged to the Zonal Manager and classified on the basis of city and pin code" style="rounded=0;whiteSpace=wrap;html=1;" vertex="1" parent="1">
          <mxGeometry x="-1700" y="115" width="140" height="60" as="geometry" />
        </mxCell>
        <mxCell id="fGk7OGRNWrDz0cRM8d9a-31" style="edgeStyle=orthogonalEdgeStyle;rounded=0;orthogonalLoop=1;jettySize=auto;html=1;entryX=0.5;entryY=1;entryDx=0;entryDy=0;" edge="1" parent="1" source="fGk7OGRNWrDz0cRM8d9a-27" target="fGk7OGRNWrDz0cRM8d9a-22">
          <mxGeometry relative="1" as="geometry">
            <mxPoint x="-1210" y="115" as="targetPoint" />
          </mxGeometry>
        </mxCell>
        <mxCell id="fGk7OGRNWrDz0cRM8d9a-27" value="1.Integration of CRM and dialler&lt;div&gt;2. SSO to be ensured for all applications (CRM, dialler, agent and web portal)&lt;/div&gt;" style="shape=document;whiteSpace=wrap;html=1;boundedLbl=1;" vertex="1" parent="1">
          <mxGeometry x="-1718.75" y="272.5" width="177.5" height="80" as="geometry" />
        </mxCell>
        <mxCell id="fGk7OGRNWrDz0cRM8d9a-52" style="edgeStyle=orthogonalEdgeStyle;rounded=0;orthogonalLoop=1;jettySize=auto;html=1;" edge="1" parent="1" source="fGk7OGRNWrDz0cRM8d9a-43" target="fGk7OGRNWrDz0cRM8d9a-47">
          <mxGeometry relative="1" as="geometry" />
        </mxCell>
        <mxCell id="fGk7OGRNWrDz0cRM8d9a-43" value="Web Sales Team Makes call" style="rounded=0;whiteSpace=wrap;html=1;" vertex="1" parent="1">
          <mxGeometry x="-1289" y="115" width="120" height="60" as="geometry" />
        </mxCell>
        <mxCell id="fGk7OGRNWrDz0cRM8d9a-67" style="edgeStyle=orthogonalEdgeStyle;rounded=0;orthogonalLoop=1;jettySize=auto;html=1;entryX=0.5;entryY=0;entryDx=0;entryDy=0;" edge="1" parent="1" source="fGk7OGRNWrDz0cRM8d9a-47" target="fGk7OGRNWrDz0cRM8d9a-66">
          <mxGeometry relative="1" as="geometry" />
        </mxCell>
        <mxCell id="fGk7OGRNWrDz0cRM8d9a-69" style="edgeStyle=orthogonalEdgeStyle;rounded=0;orthogonalLoop=1;jettySize=auto;html=1;" edge="1" parent="1" source="fGk7OGRNWrDz0cRM8d9a-47" target="fGk7OGRNWrDz0cRM8d9a-49">
          <mxGeometry relative="1" as="geometry" />
        </mxCell>
        <mxCell id="fGk7OGRNWrDz0cRM8d9a-70" style="edgeStyle=orthogonalEdgeStyle;rounded=0;orthogonalLoop=1;jettySize=auto;html=1;" edge="1" parent="1" source="fGk7OGRNWrDz0cRM8d9a-47" target="fGk7OGRNWrDz0cRM8d9a-48">
          <mxGeometry relative="1" as="geometry" />
        </mxCell>
        <mxCell id="fGk7OGRNWrDz0cRM8d9a-47" value="Customer&lt;br&gt;Decides" style="rhombus;whiteSpace=wrap;html=1;" vertex="1" parent="1">
          <mxGeometry x="-1078.75" y="105" width="80" height="80" as="geometry" />
        </mxCell>
        <mxCell id="fGk7OGRNWrDz0cRM8d9a-142" style="edgeStyle=orthogonalEdgeStyle;rounded=0;orthogonalLoop=1;jettySize=auto;html=1;" edge="1" parent="1" source="fGk7OGRNWrDz0cRM8d9a-48" target="fGk7OGRNWrDz0cRM8d9a-141">
          <mxGeometry relative="1" as="geometry" />
        </mxCell>
        <mxCell id="fGk7OGRNWrDz0cRM8d9a-48" value="Call Back" style="rounded=0;whiteSpace=wrap;html=1;" vertex="1" parent="1">
          <mxGeometry x="-1071.5" y="7.5" width="65" height="30" as="geometry" />
        </mxCell>
        <mxCell id="fGk7OGRNWrDz0cRM8d9a-116" style="edgeStyle=orthogonalEdgeStyle;rounded=0;orthogonalLoop=1;jettySize=auto;html=1;entryX=0.5;entryY=1;entryDx=0;entryDy=0;" edge="1" parent="1" source="fGk7OGRNWrDz0cRM8d9a-49" target="fGk7OGRNWrDz0cRM8d9a-113">
          <mxGeometry relative="1" as="geometry" />
        </mxCell>
        <mxCell id="fGk7OGRNWrDz0cRM8d9a-49" value="Not Interested" style="rounded=0;whiteSpace=wrap;html=1;" vertex="1" parent="1">
          <mxGeometry x="-902.5" y="130" width="60" height="30" as="geometry" />
        </mxCell>
        <mxCell id="fGk7OGRNWrDz0cRM8d9a-51" style="edgeStyle=orthogonalEdgeStyle;rounded=0;orthogonalLoop=1;jettySize=auto;html=1;entryX=0;entryY=0.5;entryDx=0;entryDy=0;" edge="1" parent="1" source="fGk7OGRNWrDz0cRM8d9a-50" target="fGk7OGRNWrDz0cRM8d9a-1">
          <mxGeometry relative="1" as="geometry" />
        </mxCell>
        <mxCell id="fGk7OGRNWrDz0cRM8d9a-50" value="Start" style="rounded=1;whiteSpace=wrap;html=1;fillColor=#ffe6cc;strokeColor=#d79b00;" vertex="1" parent="1">
          <mxGeometry x="-2030" y="130" width="70" height="30" as="geometry" />
        </mxCell>
        <mxCell id="fGk7OGRNWrDz0cRM8d9a-92" style="edgeStyle=orthogonalEdgeStyle;rounded=0;orthogonalLoop=1;jettySize=auto;html=1;entryX=0.5;entryY=0;entryDx=0;entryDy=0;" edge="1" parent="1" source="fGk7OGRNWrDz0cRM8d9a-66" target="fGk7OGRNWrDz0cRM8d9a-91">
          <mxGeometry relative="1" as="geometry">
            <mxPoint x="-1040" y="300" as="targetPoint" />
          </mxGeometry>
        </mxCell>
        <mxCell id="fGk7OGRNWrDz0cRM8d9a-66" value="Inte&lt;span style=&quot;background-color: initial;&quot;&gt;rested&lt;/span&gt;" style="rounded=0;whiteSpace=wrap;html=1;" vertex="1" parent="1">
          <mxGeometry x="-1077.5" y="242.5" width="75" height="30" as="geometry" />
        </mxCell>
        <mxCell id="fGk7OGRNWrDz0cRM8d9a-148" style="edgeStyle=orthogonalEdgeStyle;rounded=0;orthogonalLoop=1;jettySize=auto;html=1;" edge="1" parent="1" source="fGk7OGRNWrDz0cRM8d9a-89" target="fGk7OGRNWrDz0cRM8d9a-43">
          <mxGeometry relative="1" as="geometry" />
        </mxCell>
        <mxCell id="fGk7OGRNWrDz0cRM8d9a-89" value="call the customer with in 45 seconds of the lead creation" style="shape=document;whiteSpace=wrap;html=1;boundedLbl=1;" vertex="1" parent="1">
          <mxGeometry x="-1289" y="230" width="120" height="80" as="geometry" />
        </mxCell>
        <mxCell id="fGk7OGRNWrDz0cRM8d9a-94" style="edgeStyle=orthogonalEdgeStyle;rounded=0;orthogonalLoop=1;jettySize=auto;html=1;" edge="1" parent="1" source="fGk7OGRNWrDz0cRM8d9a-91" target="fGk7OGRNWrDz0cRM8d9a-93">
          <mxGeometry relative="1" as="geometry" />
        </mxCell>
        <mxCell id="fGk7OGRNWrDz0cRM8d9a-91" value="Process the case in agency portal" style="whiteSpace=wrap;html=1;fillColor=#f8cecc;strokeColor=#b85450;" vertex="1" parent="1">
          <mxGeometry x="-1102.5" y="317.5" width="125" height="40" as="geometry" />
        </mxCell>
        <mxCell id="fGk7OGRNWrDz0cRM8d9a-119" style="edgeStyle=orthogonalEdgeStyle;rounded=0;orthogonalLoop=1;jettySize=auto;html=1;entryX=0.5;entryY=0;entryDx=0;entryDy=0;" edge="1" parent="1" source="fGk7OGRNWrDz0cRM8d9a-93" target="fGk7OGRNWrDz0cRM8d9a-100">
          <mxGeometry relative="1" as="geometry" />
        </mxCell>
        <mxCell id="fGk7OGRNWrDz0cRM8d9a-93" value="Functionalities like&lt;div&gt;1. Quick quote&lt;/div&gt;&lt;div&gt;2. Quote sharing&lt;/div&gt;&lt;div&gt;3. Data entry of proposal form shall be available for caller in Agency portal&lt;/div&gt;" style="rounded=0;whiteSpace=wrap;html=1;fillColor=#f8cecc;strokeColor=#b85450;" vertex="1" parent="1">
          <mxGeometry x="-1135" y="420" width="190" height="97.5" as="geometry" />
        </mxCell>
        <mxCell id="fGk7OGRNWrDz0cRM8d9a-137" style="edgeStyle=orthogonalEdgeStyle;rounded=0;orthogonalLoop=1;jettySize=auto;html=1;entryX=0.5;entryY=0;entryDx=0;entryDy=0;" edge="1" parent="1" source="fGk7OGRNWrDz0cRM8d9a-95" target="fGk7OGRNWrDz0cRM8d9a-96">
          <mxGeometry relative="1" as="geometry" />
        </mxCell>
        <mxCell id="fGk7OGRNWrDz0cRM8d9a-95" value="Customer makes online Payment in Agency portal through payment gateway" style="whiteSpace=wrap;html=1;fillColor=#f8cecc;strokeColor=#b85450;" vertex="1" parent="1">
          <mxGeometry x="-1240" y="730" width="140" height="70" as="geometry" />
        </mxCell>
        <mxCell id="fGk7OGRNWrDz0cRM8d9a-138" style="edgeStyle=orthogonalEdgeStyle;rounded=0;orthogonalLoop=1;jettySize=auto;html=1;" edge="1" parent="1" source="fGk7OGRNWrDz0cRM8d9a-96" target="fGk7OGRNWrDz0cRM8d9a-97">
          <mxGeometry relative="1" as="geometry" />
        </mxCell>
        <mxCell id="fGk7OGRNWrDz0cRM8d9a-96" value="Details Sent to TCS BANCS" style="whiteSpace=wrap;html=1;fillColor=#f8cecc;strokeColor=#b85450;" vertex="1" parent="1">
          <mxGeometry x="-1230" y="840" width="120" height="60" as="geometry" />
        </mxCell>
        <mxCell id="fGk7OGRNWrDz0cRM8d9a-139" style="edgeStyle=orthogonalEdgeStyle;rounded=0;orthogonalLoop=1;jettySize=auto;html=1;entryX=1;entryY=0.5;entryDx=0;entryDy=0;" edge="1" parent="1" source="fGk7OGRNWrDz0cRM8d9a-97" target="fGk7OGRNWrDz0cRM8d9a-98">
          <mxGeometry relative="1" as="geometry" />
        </mxCell>
        <mxCell id="fGk7OGRNWrDz0cRM8d9a-97" value="Policy details sent to CRM" style="whiteSpace=wrap;html=1;" vertex="1" parent="1">
          <mxGeometry x="-1410" y="840" width="120" height="60" as="geometry" />
        </mxCell>
        <mxCell id="fGk7OGRNWrDz0cRM8d9a-140" style="edgeStyle=orthogonalEdgeStyle;rounded=0;orthogonalLoop=1;jettySize=auto;html=1;" edge="1" parent="1" source="fGk7OGRNWrDz0cRM8d9a-98" target="fGk7OGRNWrDz0cRM8d9a-99">
          <mxGeometry relative="1" as="geometry" />
        </mxCell>
        <mxCell id="fGk7OGRNWrDz0cRM8d9a-98" value="Records saved in Zoho CRM as customers in a separate module for customer handling" style="whiteSpace=wrap;html=1;" vertex="1" parent="1">
          <mxGeometry x="-1593" y="830" width="140" height="80" as="geometry" />
        </mxCell>
        <mxCell id="fGk7OGRNWrDz0cRM8d9a-99" value="End" style="rounded=1;whiteSpace=wrap;html=1;fillColor=#ffe6cc;strokeColor=#d79b00;" vertex="1" parent="1">
          <mxGeometry x="-1710" y="847.5" width="80" height="45" as="geometry" />
        </mxCell>
        <mxCell id="fGk7OGRNWrDz0cRM8d9a-128" style="edgeStyle=orthogonalEdgeStyle;rounded=0;orthogonalLoop=1;jettySize=auto;html=1;" edge="1" parent="1" source="fGk7OGRNWrDz0cRM8d9a-100" target="fGk7OGRNWrDz0cRM8d9a-95">
          <mxGeometry relative="1" as="geometry" />
        </mxCell>
        <mxCell id="fGk7OGRNWrDz0cRM8d9a-129" style="edgeStyle=orthogonalEdgeStyle;rounded=0;orthogonalLoop=1;jettySize=auto;html=1;entryX=0.5;entryY=0;entryDx=0;entryDy=0;" edge="1" parent="1" source="fGk7OGRNWrDz0cRM8d9a-100" target="fGk7OGRNWrDz0cRM8d9a-101">
          <mxGeometry relative="1" as="geometry" />
        </mxCell>
        <mxCell id="fGk7OGRNWrDz0cRM8d9a-100" value="Required data sent to customers and processed in Agency portal" style="rounded=0;whiteSpace=wrap;html=1;fillColor=#f8cecc;strokeColor=#b85450;" vertex="1" parent="1">
          <mxGeometry x="-1104.75" y="574" width="130" height="60" as="geometry" />
        </mxCell>
        <mxCell id="fGk7OGRNWrDz0cRM8d9a-132" value="" style="edgeStyle=orthogonalEdgeStyle;rounded=0;orthogonalLoop=1;jettySize=auto;html=1;" edge="1" parent="1" source="fGk7OGRNWrDz0cRM8d9a-101" target="fGk7OGRNWrDz0cRM8d9a-102">
          <mxGeometry relative="1" as="geometry" />
        </mxCell>
        <mxCell id="fGk7OGRNWrDz0cRM8d9a-101" value="Caller shall schedule an appointment in CRM for cheque / cash collection and collection of required documents" style="whiteSpace=wrap;html=1;" vertex="1" parent="1">
          <mxGeometry x="-980" y="730" width="140" height="70" as="geometry" />
        </mxCell>
        <mxCell id="fGk7OGRNWrDz0cRM8d9a-133" style="edgeStyle=orthogonalEdgeStyle;rounded=0;orthogonalLoop=1;jettySize=auto;html=1;" edge="1" parent="1" source="fGk7OGRNWrDz0cRM8d9a-102" target="fGk7OGRNWrDz0cRM8d9a-103">
          <mxGeometry relative="1" as="geometry" />
        </mxCell>
        <mxCell id="fGk7OGRNWrDz0cRM8d9a-102" value="GHI executive will be mapped for customer visit" style="rounded=0;whiteSpace=wrap;html=1;" vertex="1" parent="1">
          <mxGeometry x="-970" y="825" width="120" height="60" as="geometry" />
        </mxCell>
        <mxCell id="fGk7OGRNWrDz0cRM8d9a-134" style="edgeStyle=orthogonalEdgeStyle;rounded=0;orthogonalLoop=1;jettySize=auto;html=1;entryX=1;entryY=0.5;entryDx=0;entryDy=0;" edge="1" parent="1" source="fGk7OGRNWrDz0cRM8d9a-103" target="fGk7OGRNWrDz0cRM8d9a-104">
          <mxGeometry relative="1" as="geometry" />
        </mxCell>
        <mxCell id="fGk7OGRNWrDz0cRM8d9a-103" value="Communication sent to customer for GHI executive visit with executive name, date and time of visit" style="rounded=0;whiteSpace=wrap;html=1;" vertex="1" parent="1">
          <mxGeometry x="-805" y="820" width="135" height="70" as="geometry" />
        </mxCell>
        <mxCell id="fGk7OGRNWrDz0cRM8d9a-135" style="edgeStyle=orthogonalEdgeStyle;rounded=0;orthogonalLoop=1;jettySize=auto;html=1;" edge="1" parent="1" source="fGk7OGRNWrDz0cRM8d9a-104" target="fGk7OGRNWrDz0cRM8d9a-105">
          <mxGeometry relative="1" as="geometry" />
        </mxCell>
        <mxCell id="fGk7OGRNWrDz0cRM8d9a-104" value="GHI executive processes the case in the agent portal in presence of the customer" style="rounded=0;whiteSpace=wrap;html=1;fillColor=#f8cecc;strokeColor=#b85450;" vertex="1" parent="1">
          <mxGeometry x="-937.5" y="940" width="147.5" height="60" as="geometry" />
        </mxCell>
        <mxCell id="fGk7OGRNWrDz0cRM8d9a-136" style="edgeStyle=orthogonalEdgeStyle;rounded=0;orthogonalLoop=1;jettySize=auto;html=1;entryX=0.5;entryY=1;entryDx=0;entryDy=0;" edge="1" parent="1" source="fGk7OGRNWrDz0cRM8d9a-105" target="fGk7OGRNWrDz0cRM8d9a-96">
          <mxGeometry relative="1" as="geometry" />
        </mxCell>
        <mxCell id="fGk7OGRNWrDz0cRM8d9a-105" value="GHI executive shall deposit the cheque or cash in the branch to process the payment" style="rounded=0;whiteSpace=wrap;html=1;fillColor=#f8cecc;strokeColor=#b85450;" vertex="1" parent="1">
          <mxGeometry x="-1100" y="940" width="120" height="60" as="geometry" />
        </mxCell>
        <mxCell id="fGk7OGRNWrDz0cRM8d9a-107" style="edgeStyle=orthogonalEdgeStyle;rounded=0;orthogonalLoop=1;jettySize=auto;html=1;" edge="1" parent="1" source="fGk7OGRNWrDz0cRM8d9a-106" target="fGk7OGRNWrDz0cRM8d9a-91">
          <mxGeometry relative="1" as="geometry" />
        </mxCell>
        <mxCell id="fGk7OGRNWrDz0cRM8d9a-106" value="Channel ID and employee ID to be passed to Agent portal from CRM" style="shape=document;whiteSpace=wrap;html=1;boundedLbl=1;" vertex="1" parent="1">
          <mxGeometry x="-902.5" y="297.5" width="127.5" height="80" as="geometry" />
        </mxCell>
        <mxCell id="fGk7OGRNWrDz0cRM8d9a-111" style="edgeStyle=orthogonalEdgeStyle;rounded=0;orthogonalLoop=1;jettySize=auto;html=1;entryX=1;entryY=0.5;entryDx=0;entryDy=0;" edge="1" parent="1" source="fGk7OGRNWrDz0cRM8d9a-110" target="fGk7OGRNWrDz0cRM8d9a-66">
          <mxGeometry relative="1" as="geometry" />
        </mxCell>
        <mxCell id="fGk7OGRNWrDz0cRM8d9a-149" style="edgeStyle=orthogonalEdgeStyle;rounded=0;orthogonalLoop=1;jettySize=auto;html=1;entryX=1;entryY=0.5;entryDx=0;entryDy=0;" edge="1" parent="1" source="fGk7OGRNWrDz0cRM8d9a-110" target="fGk7OGRNWrDz0cRM8d9a-49">
          <mxGeometry relative="1" as="geometry" />
        </mxCell>
        <mxCell id="fGk7OGRNWrDz0cRM8d9a-110" value="45 - 60 seconds timeout to be provided to the caller to update the disposition and take notes" style="shape=document;whiteSpace=wrap;html=1;boundedLbl=1;fillColor=#d5e8d4;strokeColor=#82b366;" vertex="1" parent="1">
          <mxGeometry x="-730" y="210" width="170" height="95" as="geometry" />
        </mxCell>
        <mxCell id="fGk7OGRNWrDz0cRM8d9a-117" style="edgeStyle=orthogonalEdgeStyle;rounded=0;orthogonalLoop=1;jettySize=auto;html=1;entryX=0.5;entryY=1;entryDx=0;entryDy=0;" edge="1" parent="1" source="fGk7OGRNWrDz0cRM8d9a-113" target="fGk7OGRNWrDz0cRM8d9a-115">
          <mxGeometry relative="1" as="geometry" />
        </mxCell>
        <mxCell id="fGk7OGRNWrDz0cRM8d9a-113" value="&lt;meta charset=&quot;utf-8&quot;&gt;&lt;span style=&quot;color: rgb(0, 0, 0); font-family: Helvetica; font-size: 12px; font-style: normal; font-variant-ligatures: normal; font-variant-caps: normal; font-weight: 400; letter-spacing: normal; orphans: 2; text-align: center; text-indent: 0px; text-transform: none; widows: 2; word-spacing: 0px; -webkit-text-stroke-width: 0px; white-space: normal; background-color: rgb(251, 251, 251); text-decoration-thickness: initial; text-decoration-style: initial; text-decoration-color: initial; display: inline !important; float: none;&quot;&gt;Remove the customer from the calling base for a specified period of time.&lt;/span&gt;" style="rounded=0;whiteSpace=wrap;html=1;" vertex="1" parent="1">
          <mxGeometry x="-932.75" y="7.5" width="120" height="60" as="geometry" />
        </mxCell>
        <mxCell id="fGk7OGRNWrDz0cRM8d9a-118" style="edgeStyle=orthogonalEdgeStyle;rounded=0;orthogonalLoop=1;jettySize=auto;html=1;" edge="1" parent="1" source="fGk7OGRNWrDz0cRM8d9a-114" target="fGk7OGRNWrDz0cRM8d9a-113">
          <mxGeometry relative="1" as="geometry" />
        </mxCell>
        <mxCell id="fGk7OGRNWrDz0cRM8d9a-114" value="&lt;meta charset=&quot;utf-8&quot;&gt;&lt;span style=&quot;color: rgb(0, 0, 0); font-family: Helvetica; font-size: 12px; font-style: normal; font-variant-ligatures: normal; font-variant-caps: normal; font-weight: 400; letter-spacing: normal; orphans: 2; text-align: center; text-indent: 0px; text-transform: none; widows: 2; word-spacing: 0px; -webkit-text-stroke-width: 0px; white-space: normal; background-color: rgb(251, 251, 251); text-decoration-thickness: initial; text-decoration-style: initial; text-decoration-color: initial; display: inline !important; float: none;&quot;&gt;Automatically add to the calling base post the specified time.&lt;/span&gt;" style="shape=document;whiteSpace=wrap;html=1;boundedLbl=1;" vertex="1" parent="1">
          <mxGeometry x="-740" y="-2.5" width="120" height="80" as="geometry" />
        </mxCell>
        <mxCell id="fGk7OGRNWrDz0cRM8d9a-115" value="End" style="rounded=1;whiteSpace=wrap;html=1;fillColor=#ffe6cc;strokeColor=#d79b00;" vertex="1" parent="1">
          <mxGeometry x="-912.75" y="-70" width="80" height="45" as="geometry" />
        </mxCell>
        <mxCell id="fGk7OGRNWrDz0cRM8d9a-125" style="edgeStyle=orthogonalEdgeStyle;rounded=0;orthogonalLoop=1;jettySize=auto;html=1;" edge="1" parent="1" target="fGk7OGRNWrDz0cRM8d9a-123">
          <mxGeometry relative="1" as="geometry">
            <mxPoint x="-988.75" y="725" as="sourcePoint" />
          </mxGeometry>
        </mxCell>
        <mxCell id="fGk7OGRNWrDz0cRM8d9a-141" value="&lt;meta charset=&quot;utf-8&quot;&gt;&lt;span style=&quot;color: rgb(0, 0, 0); font-family: Helvetica; font-size: 12px; font-style: normal; font-variant-ligatures: normal; font-variant-caps: normal; font-weight: 400; letter-spacing: normal; orphans: 2; text-align: center; text-indent: 0px; text-transform: none; widows: 2; word-spacing: 0px; -webkit-text-stroke-width: 0px; white-space: normal; background-color: rgb(251, 251, 251); text-decoration-thickness: initial; text-decoration-style: initial; text-decoration-color: initial; display: inline !important; float: none;&quot;&gt;Update the disposition in CRM with call back time&lt;/span&gt;" style="rounded=0;whiteSpace=wrap;html=1;" vertex="1" parent="1">
          <mxGeometry x="-1099" y="-120" width="120" height="60" as="geometry" />
        </mxCell>
        <mxCell id="fGk7OGRNWrDz0cRM8d9a-147" style="edgeStyle=orthogonalEdgeStyle;rounded=0;orthogonalLoop=1;jettySize=auto;html=1;" edge="1" parent="1" source="fGk7OGRNWrDz0cRM8d9a-143" target="fGk7OGRNWrDz0cRM8d9a-144">
          <mxGeometry relative="1" as="geometry" />
        </mxCell>
        <mxCell id="fGk7OGRNWrDz0cRM8d9a-143" value="45 - 60 seconds timeout to be provided to the caller to update the disposition and take notes" style="shape=document;whiteSpace=wrap;html=1;boundedLbl=1;" vertex="1" parent="1">
          <mxGeometry x="-1314" y="-220" width="170" height="100" as="geometry" />
        </mxCell>
        <mxCell id="fGk7OGRNWrDz0cRM8d9a-145" style="edgeStyle=orthogonalEdgeStyle;rounded=0;orthogonalLoop=1;jettySize=auto;html=1;" edge="1" parent="1" source="fGk7OGRNWrDz0cRM8d9a-144" target="fGk7OGRNWrDz0cRM8d9a-43">
          <mxGeometry relative="1" as="geometry" />
        </mxCell>
        <mxCell id="fGk7OGRNWrDz0cRM8d9a-144" value="Dialler to pause the live call &amp;amp; connect with call back customer&amp;nbsp;" style="rounded=0;whiteSpace=wrap;html=1;" vertex="1" parent="1">
          <mxGeometry x="-1289" y="-22.5" width="120" height="60" as="geometry" />
        </mxCell>
        <mxCell id="fGk7OGRNWrDz0cRM8d9a-146" style="edgeStyle=orthogonalEdgeStyle;rounded=0;orthogonalLoop=1;jettySize=auto;html=1;entryX=0.994;entryY=0.36;entryDx=0;entryDy=0;entryPerimeter=0;" edge="1" parent="1" source="fGk7OGRNWrDz0cRM8d9a-141" target="fGk7OGRNWrDz0cRM8d9a-143">
          <mxGeometry relative="1" as="geometry">
            <Array as="points">
              <mxPoint x="-1040" y="-184" />
            </Array>
          </mxGeometry>
        </mxCell>
      </root>
    </mxGraphModel>
  </diagram>
</mxfile>
